<svg xmlns="http://www.w3.org/2000/svg" height="160" width="160"><path d="M109.451 70.138c-1.858 0-3.364 1.506-3.364 3.364-.019 16.711-13.561 30.254-30.272 30.272-5.213.009-10.337-1.343-14.867-3.922l3.791-3.791c.962-.962 1.249-2.408.729-3.665s-1.747-2.076-3.107-2.076H48.907c-1.858 0-3.364 1.506-3.364 3.364v13.454c0 1.36.819 2.587 2.075 3.108a3.32 3.32 0 0 0 1.288.256c.892 0 1.747-.355 2.378-.986l4.746-4.733c5.912 3.759 12.779 5.743 19.785 5.718 20.424-.024 36.975-16.575 36.999-36.999 0-1.858-1.506-3.364-3.364-3.364z" fill="#fc7f7f"/><path d="M38.816 73.501A37 37 0 0 1 95.6 42.22l4.746-4.743c.963-.963 2.412-1.25 3.67-.727s2.076 1.753 2.072 3.115V53.32c0 1.858-1.506 3.364-3.364 3.364H89.27c-1.36 0-2.586-.82-3.107-2.076s-.233-2.703.729-3.665l3.794-3.794c-9.369-5.298-20.847-5.219-30.143.208s-15.007 15.383-15 26.146c0 1.858-1.506 3.364-3.364 3.364s-3.364-1.506-3.364-3.364z" fill="#5fb2ff"/><path d="M30 10a20 20 0 0 0-20 20h20zm20 0v20h20V10zm40 0v20h20V10zm40 0v20h20a20 20 0 0 0-20-20zM10 50v20h20V50zm120 0v20h20V50zM10 90v20h20V90zm0 40a20 20 0 0 0 20 20v-20zm40 0v20h20v-20z" fill="#fc7f7f"/><path d="M120 90a10 10 0 0 0-10 10v10h20v20h10a10 10 0 0 0 10-10v-20a10 10 0 0 0-10-10zm10 40h-20v-20h-10a10 10 0 0 0-10 10v20a10 10 0 0 0 10 10h20a10 10 0 0 0 10-10z" fill="#5fb2ff"/></svg>